<?xml version="1.0" encoding="utf-8"?>
<!-- Generator: Adobe Illustrator 22.1.0, SVG Export Plug-In . SVG Version: 6.00 Build 0)  -->
<svg version="1.1" id="Capa_1" xmlns="http://www.w3.org/2000/svg" xmlns:xlink="http://www.w3.org/1999/xlink" x="0px" y="0px"
	 viewBox="0 0 41.5 34.5" style="enable-background:new 0 0 41.5 34.5;" xml:space="preserve">
<style type="text/css">
	.st0{fill:#45485C;}
	.st1{fill:#5930BA;}
</style>
<g>
	<path class="st0" d="M25.6,27.5c0.4,0,0.7-0.2,0.8-0.6L30,16.4c0.1-0.3,0-0.6-0.1-0.8c-0.2-0.2-0.4-0.4-0.7-0.4H7l-0.6-3.7
		c-0.2-1.3-1.3-2.2-2.6-2.2H0.9C0.4,9.3,0,9.7,0,10.2c0,0.5,0.4,0.9,0.9,0.9h2.9c0.4,0,0.8,0.3,0.9,0.7l2.5,14.9v1.7
		c0,1.3,0.9,2.3,2.1,2.6c-0.3,0.4-0.5,0.9-0.5,1.4c0,1.2,1,2.2,2.2,2.2s2.2-1,2.2-2.2c0-0.5-0.2-1-0.4-1.3h8.2
		c-0.3,0.4-0.4,0.8-0.4,1.3c0,1.2,1,2.2,2.2,2.2c1.2,0,2.2-1,2.2-2.2c0-0.5-0.2-1-0.4-1.3h1.2c0.5,0,0.9-0.4,0.9-0.9
		c0-0.5-0.4-0.9-0.9-0.9H9.8c-0.5,0-0.9-0.4-0.9-0.9v-0.9L25.6,27.5z M22.1,17h5.8l-0.6,1.8h-5.2V17z M22.1,20.5h4.6l-0.6,1.8h-4.1
		V20.5z M22.1,24h3.5L25,25.7h-2.9V24z M17.7,17h2.6v1.8h-2.6V17z M17.7,20.5h2.6v1.8h-2.6V20.5z M17.7,24h2.6v1.8h-2.6V24z
		 M13.3,17h2.6v1.8h-2.6V17z M13.3,20.5h2.6v1.8h-2.6V20.5z M13.3,24h2.6v1.8h-2.6V24z M7.3,17h4.2v1.8H7.6L7.3,17z M7.9,20.5h3.6
		v1.8H8.2L7.9,20.5z M8.8,25.7L8.5,24h3.1v1.8H8.8z"/>
</g>
<circle class="st1" cx="30" cy="11.5" r="11.5"/>
</svg>
