<?xml version="1.0" encoding="utf-8"?>
<!-- Generator: Adobe Illustrator 22.1.0, SVG Export Plug-In . SVG Version: 6.00 Build 0)  -->
<svg version="1.1" id="outline" xmlns="http://www.w3.org/2000/svg" xmlns:xlink="http://www.w3.org/1999/xlink" x="0px" y="0px"
	 viewBox="0 0 33 33" style="enable-background:new 0 0 33 33;" xml:space="preserve">
<style type="text/css">
	.st0{fill:#6B4DB3;}
</style>
<path class="st0" d="M31.2,18.6h1.3c0.3,0,0.5-0.2,0.5-0.5s-0.2-0.5-0.5-0.5h-1.3l-1-1c-0.2-0.2-0.4-0.4-0.7-0.5
	c0.2-0.2,0.5-0.3,0.7-0.5l1-1h1.3c0.3,0,0.5-0.2,0.5-0.5s-0.2-0.5-0.5-0.5h-1.3l-1-1c-0.7-0.7-1.6-1.1-2.6-1.1h-1.3v-7
	c0.7-0.7,1-1.7,1-2.7V0.5c0-0.3-0.2-0.5-0.5-0.5h-1.1c-1,0-2,0.4-2.7,1H10C9.3,0.4,8.3,0,7.3,0H6.2C5.9,0,5.7,0.2,5.7,0.5v1.1
	c0,1,0.4,2,1,2.7v7H5.4c-1,0-1.9,0.4-2.6,1.1l-1,1H0.5c-0.3,0-0.5,0.2-0.5,0.5s0.2,0.5,0.5,0.5h1.3l1,1c0.2,0.2,0.4,0.4,0.7,0.5
	c-0.2,0.2-0.5,0.3-0.7,0.5l-1,1H0.5C0.2,17.5,0,17.8,0,18s0.2,0.5,0.5,0.5h1.3l1,1c0.2,0.2,0.4,0.4,0.7,0.5
	c-0.2,0.2-0.5,0.3-0.7,0.5l-1,1H0.5c-0.3,0-0.5,0.2-0.5,0.5s0.2,0.5,0.5,0.5h1.3l1,1c0.2,0.2,0.4,0.4,0.7,0.5
	c-0.2,0.2-0.5,0.3-0.7,0.5l-1,1H0.5C0.2,25.8,0,26,0,26.3s0.2,0.5,0.5,0.5h1.3l1,1c0.2,0.2,0.4,0.4,0.7,0.5
	c-0.2,0.2-0.5,0.3-0.7,0.5l-1,1H0.5c-0.3,0-0.5,0.2-0.5,0.5s0.2,0.5,0.5,0.5h1.3l1,1C3.5,32.6,4.4,33,5.4,33h22.2
	c1,0,1.9-0.4,2.6-1.1l1-1h1.3c0.3,0,0.5-0.2,0.5-0.5s-0.2-0.5-0.5-0.5h-1.3l-1-1c-0.2-0.2-0.4-0.4-0.7-0.5c0.2-0.2,0.5-0.3,0.7-0.5
	l1-1h1.3c0.3,0,0.5-0.2,0.5-0.5s-0.2-0.5-0.5-0.5h-1.3l-1-1c-0.2-0.2-0.4-0.4-0.7-0.5c0.2-0.2,0.5-0.3,0.7-0.5l1-1h1.3
	c0.3,0,0.5-0.2,0.5-0.5s-0.2-0.5-0.5-0.5h-1.3l-1-1c-0.2-0.2-0.4-0.4-0.7-0.5c0.2-0.2,0.5-0.3,0.7-0.5L31.2,18.6z M27.6,12.4
	c0.7,0,1.3,0.3,1.8,0.8l0.8,0.8l-0.8,0.8c-0.5,0.5-1.1,0.8-1.8,0.8h-1.3v-3.1H27.6z M12.4,2.1h8.3v2.1h-8.3V2.1z M6.7,1h0.6
	c0.8,0,1.6,0.3,2.1,0.9l0.5,0.5c0.1,0.1,0.2,0.2,0.4,0.2s0.3-0.1,0.4-0.2c0.1-0.1,0.2-0.2,0.2-0.4h0.5v2.6c0,0.3,0.2,0.5,0.5,0.5
	h9.3c0.3,0,0.5-0.2,0.5-0.5V2.1h0.5c0,0.1,0.1,0.3,0.2,0.4c0.1,0.1,0.2,0.2,0.4,0.2s0.3-0.1,0.4-0.2l0.5-0.5C24.1,1.4,24.9,1,25.7,1
	h0.6v0.6c0,0.8-0.3,1.6-0.9,2.1l-0.5,0.5c-0.2,0.2-0.2,0.5,0,0.7c0.1,0.1,0.2,0.2,0.4,0.2v20.6c-0.1,0-0.3,0.1-0.4,0.2
	c-0.2,0.2-0.2,0.5,0,0.7l0.5,0.5c0,0,0,0,0,0c0.4,0.4,0.6,0.8,0.8,1.3c0,0,0,0,0,0c0.1,0.3,0.1,0.5,0.1,0.8v0.6h-0.6
	c-0.8,0-1.6-0.3-2.1-0.9l-0.5-0.5c-0.2-0.2-0.5-0.2-0.7,0c-0.1,0.1-0.2,0.2-0.2,0.4h-0.5v-2.6c0-0.3-0.2-0.5-0.5-0.5h-9.3
	c-0.3,0-0.5,0.2-0.5,0.5v2.6h-0.5c0-0.1-0.1-0.3-0.2-0.4c-0.2-0.2-0.5-0.2-0.7,0L9.4,29c-0.6,0.6-1.3,0.9-2.1,0.9H6.7v-0.6
	c0-0.3,0-0.5,0.1-0.8c0,0,0,0,0,0C7,28,7.2,27.5,7.6,27.2c0,0,0,0,0,0l0.5-0.5c0.2-0.2,0.2-0.5,0-0.7c-0.1-0.1-0.2-0.2-0.4-0.2V5.2
	C7.9,5.2,8,5.1,8.1,5c0.2-0.2,0.2-0.5,0-0.7L7.6,3.8C7,3.2,6.7,2.4,6.7,1.6V1z M20.6,28.9h-8.3v-2.1h8.3V28.9z M3.6,14.7l-0.8-0.8
	l0.8-0.8c0.5-0.5,1.1-0.8,1.8-0.8h1.3v3.1H5.4C4.7,15.5,4.1,15.2,3.6,14.7z M3.6,18.8L2.8,18l0.8-0.8c0.5-0.5,1.1-0.8,1.8-0.8h1.3
	v3.1H5.4C4.7,19.6,4.1,19.3,3.6,18.8z M3.6,23l-0.8-0.8l0.8-0.8c0.5-0.5,1.1-0.8,1.8-0.8h1.3v3.1H5.4c0,0,0,0,0,0v0
	C4.7,23.7,4.1,23.5,3.6,23z M3.6,27.1l-0.8-0.8l0.8-0.8c0.5-0.5,1.1-0.8,1.8-0.8h1.3v1.9c-0.3,0.4-0.6,0.8-0.8,1.2H5.4
	C4.7,27.8,4.1,27.6,3.6,27.1z M29.4,29.6l0.8,0.8l-0.8,0.8c-0.5,0.5-1.1,0.8-1.8,0.8H5.4c-0.7,0-1.3-0.3-1.8-0.8l-0.8-0.8l0.8-0.8
	c0.5-0.5,1.1-0.8,1.8-0.8h0.3c0,0.1,0,0.3,0,0.4v1.1c0,0.3,0.2,0.5,0.5,0.5h1.1c1,0,2-0.4,2.7-1h13c0.7,0.7,1.7,1,2.7,1h1.1
	c0.3,0,0.5-0.2,0.5-0.5v-1.1c0-0.1,0-0.3,0-0.4h0.3C28.3,28.9,28.9,29.1,29.4,29.6z M30.2,26.3l-0.8,0.8c-0.5,0.5-1.1,0.8-1.8,0.8
	h-0.5c-0.2-0.5-0.4-0.9-0.8-1.2v-1.9h1.3c0.7,0,1.3,0.3,1.8,0.8L30.2,26.3z M29.4,21.4l0.8,0.8L29.4,23c-0.5,0.5-1.1,0.8-1.8,0.8v0
	c0,0,0,0,0,0h-1.3v-3.1h1.3C28.3,20.6,28.9,20.9,29.4,21.4z M26.3,19.6v-3.1h1.3c0.7,0,1.3,0.3,1.8,0.8l0.8,0.8l-0.8,0.8
	c-0.5,0.5-1.1,0.8-1.8,0.8H26.3z"/>
<path class="st0" d="M11.9,7.2h9.3c0.3,0,0.5-0.2,0.5-0.5s-0.2-0.5-0.5-0.5h-9.3c-0.3,0-0.5,0.2-0.5,0.5S11.6,7.2,11.9,7.2z"/>
<path class="st0" d="M11.9,9.3h9.3c0.3,0,0.5-0.2,0.5-0.5s-0.2-0.5-0.5-0.5h-9.3c-0.3,0-0.5,0.2-0.5,0.5S11.6,9.3,11.9,9.3z"/>
<path class="st0" d="M9.3,22.7h1.3c0.4,0.6,1,1,1.8,1s1.4-0.4,1.8-1h4.7c0.4,0.6,1,1,1.8,1c1.1,0,2.1-0.9,2.1-2.1
	c0-0.5-0.2-1-0.5-1.4v-1.5l1,1v0.8c0,0.3,0.2,0.5,0.5,0.5s0.5-0.2,0.5-0.5v-1c0,0,0,0,0,0v-4.1c0,0,0,0,0,0v-1
	c0-0.3-0.2-0.5-0.5-0.5s-0.5,0.2-0.5,0.5v0.8l-1,1v-1.8c0-0.3-0.2-0.5-0.5-0.5h-1.6c-0.2-2-1.9-3.5-4-3.6c0,0-0.1,0-0.1,0
	s-0.1,0-0.1,0c-2,0.1-3.7,1.6-4,3.6h-1.1c-0.1,0-0.3,0.1-0.4,0.2l-1.5,1.5c-0.1,0.1-0.2,0.2-0.2,0.4v6.2C8.8,22.5,9,22.7,9.3,22.7z
	 M23.2,16.7v1.6l-0.8-0.8L23.2,16.7z M20.1,15h1v2.6v0v2.1c-0.2,0-0.3-0.1-0.5-0.1h-0.5V15z M19.9,20.9
	C19.9,20.9,19.9,20.9,19.9,20.9c0.2-0.2,0.4-0.3,0.7-0.3s0.5,0.1,0.7,0.3c0,0,0,0,0,0c0.2,0.2,0.3,0.5,0.3,0.8c0,0.6-0.5,1-1,1
	c-0.4,0-0.8-0.3-1-0.7c0,0,0,0,0,0c0-0.1-0.1-0.2-0.1-0.3C19.6,21.4,19.7,21.1,19.9,20.9z M18.6,21.7h-4.1c0-0.4-0.1-0.7-0.3-1h4.7
	C18.7,20.9,18.6,21.3,18.6,21.7z M16,11.3c0.9,0,1.5,0.7,1.5,1.5s-0.7,1.5-1.5,1.5s-1.5-0.7-1.5-1.5S15.1,11.3,16,11.3z M13.4,12.7
	c0,0.1,0,0.1,0,0.2c0,1.4,1.2,2.6,2.6,2.6s2.6-1.2,2.6-2.6c0-0.1,0-0.1,0-0.2c0.3,0.5,0.5,1.1,0.5,1.7c0,1.7-1.4,3.1-3.1,3.1
	s-3.1-1.4-3.1-3.1C12.9,13.8,13.1,13.2,13.4,12.7z M12.9,17.2c0.8,0.9,1.9,1.4,3.1,1.4s2.3-0.5,3.1-1.4v2.4h-6.2V17.2z M12.4,20.6
	c0.6,0,1,0.5,1,1c0,0.1,0,0.2-0.1,0.3c0,0,0,0,0,0c-0.1,0.4-0.5,0.7-1,0.7s-0.8-0.3-1-0.7c0,0,0,0,0,0c0-0.1-0.1-0.2-0.1-0.3
	C11.3,21.1,11.8,20.6,12.4,20.6z M9.8,20.1h0.5c0.3,0,0.5-0.2,0.5-0.5s-0.2-0.5-0.5-0.5H9.8v-0.5h0.5c0.3,0,0.5-0.2,0.5-0.5
	s-0.2-0.5-0.5-0.5H9.8V17h0.5c0.3,0,0.5-0.2,0.5-0.5S10.6,16,10.3,16H10l1-1h0.8v4.7c-0.9,0.2-1.5,1-1.5,2H9.8V20.1z"/>
</svg>
