<?xml version="1.0" encoding="utf-8"?>
<!-- Generator: Adobe Illustrator 22.1.0, SVG Export Plug-In . SVG Version: 6.00 Build 0)  -->
<svg version="1.1" id="Capa_1" xmlns="http://www.w3.org/2000/svg" xmlns:xlink="http://www.w3.org/1999/xlink" x="0px" y="0px"
	 viewBox="0 0 16 16" style="enable-background:new 0 0 16 16;" xml:space="preserve">
<style type="text/css">
	.st0{fill:#5930BA;}
</style>
<g>
	<g>
		<g>
			<path class="st0" d="M15.8,6.4c-0.4-2.1-1.6-3.9-3.4-5.1c-1.7-1.1-3.7-1.6-5.8-1.2c0,0,0,0,0,0C2.3,0.9-0.6,5,0.1,9.4
				c0.1,0.3,0.1,0.7,0.2,1c0.4,1.4,0.3,3-0.3,4.3C0,14.9,0,15.2,0.2,15.4c0.2,0.2,0.4,0.3,0.7,0.2l3-0.8C5.1,15.6,6.5,16,8,16
				c0.5,0,1.1-0.1,1.6-0.2c2.1-0.4,3.9-1.6,5.1-3.4S16.3,8.5,15.8,6.4z M13.5,11.7c-1,1.5-2.5,2.5-4.2,2.8c-1.7,0.3-3.5,0-5-1
				c-0.1-0.1-0.2-0.1-0.4-0.1c-0.1,0-0.1,0-0.2,0l-2,0.6c0.3-1.3,0.3-2.7-0.1-4C1.6,9.7,1.5,9.4,1.4,9.1C0.8,5.5,3.2,2.1,6.8,1.4
				c0,0,0,0,0,0c1.7-0.3,3.4,0.1,4.8,1c1.5,1,2.5,2.5,2.8,4.2C14.9,8.4,14.5,10.2,13.5,11.7z"/>
		</g>
	</g>
	<g>
		<g>
			<path class="st0" d="M10.7,6H5.3C5,6,4.7,6.3,4.7,6.7C4.7,7,5,7.3,5.3,7.3h5.3c0.4,0,0.7-0.3,0.7-0.7C11.3,6.3,11,6,10.7,6z"/>
		</g>
	</g>
	<g>
		<g>
			<path class="st0" d="M10.7,8.7H5.3C5,8.7,4.7,9,4.7,9.3C4.7,9.7,5,10,5.3,10h5.3c0.4,0,0.7-0.3,0.7-0.7C11.3,9,11,8.7,10.7,8.7z"
				/>
		</g>
	</g>
</g>
</svg>
