<?xml version="1.0" encoding="utf-8"?>
<!-- Generator: Adobe Illustrator 22.1.0, SVG Export Plug-In . SVG Version: 6.00 Build 0)  -->
<svg version="1.1" id="Layer_1" xmlns="http://www.w3.org/2000/svg" xmlns:xlink="http://www.w3.org/1999/xlink" x="0px" y="0px"
	 viewBox="0 0 27 27" style="enable-background:new 0 0 27 27;" xml:space="preserve">
<style type="text/css">
	.st0{fill:#6B4DB3;}
</style>
<path class="st0" d="M14.4,13.4l3.8-3.8c0.3-0.3,0.3-0.6,0-0.9c-0.3-0.3-0.6-0.3-0.9,0l-3.8,3.8L9.7,8.8c-0.3-0.3-0.6-0.3-0.9,0
	c-0.3,0.3-0.3,0.6,0,0.9l3.8,3.8l-3.8,3.8c-0.3,0.3-0.3,0.6,0,0.9c0.1,0.1,0.3,0.2,0.4,0.2s0.3-0.1,0.4-0.2l3.8-3.8l3.8,3.8
	c0.1,0.1,0.3,0.2,0.4,0.2c0.2,0,0.3-0.1,0.4-0.2c0.3-0.3,0.3-0.6,0-0.9L14.4,13.4z"/>
<path class="st0" d="M13.5,1.1c6.9,0,12.4,5.6,12.4,12.4s-5.6,12.4-12.4,12.4S1.1,20.4,1.1,13.5S6.6,1.1,13.5,1.1 M13.5,0
	C6,0,0,6,0,13.5S6,27,13.5,27S27,21,27,13.5S21,0,13.5,0L13.5,0z"/>
</svg>
