<?xml version="1.0" encoding="utf-8"?>
<!-- Generator: Adobe Illustrator 22.1.0, SVG Export Plug-In . SVG Version: 6.00 Build 0)  -->
<svg version="1.1" id="Layer_1" xmlns="http://www.w3.org/2000/svg" xmlns:xlink="http://www.w3.org/1999/xlink" x="0px" y="0px"
	 viewBox="0 0 34 34" style="enable-background:new 0 0 34 34;" xml:space="preserve">
<style type="text/css">
	.st0{fill:#6B4DB3;}
</style>
<path class="st0" d="M33.8,24.5c-0.6-1.5-2.3-2.1-3.8-1.6l-6,2c0-0.2-0.1-0.5-0.1-0.7c-0.3-0.8-0.8-1.4-1.5-1.7l-8.3-4.1
	c-1.1-0.6-2.4-0.7-3.6-0.3L8,18.6c-0.2-1.4-1.5-2.5-3-2.5H1c-0.6,0-1,0.4-1,1V31c0,0.5,0.4,1,1,1h6c0.6,0,1-0.4,1-1v-0.5l5.1,2.6
	c2.3,1.2,5.1,1.3,7.5,0.2l11.5-4.9C33.7,27.7,34.4,26,33.8,24.5z M6,30H2v-12H5c0.5,0,1,0.4,1,1V30z M31.4,26.6l-11.5,4.9
	c-1.9,0.8-4,0.7-5.9-0.2l-6-3v-7.6l3-0.9c0.7-0.2,1.5-0.1,2.2,0.2l8.3,4.1c0.5,0.2,0.7,0.8,0.4,1.3c-0.3,0.5-0.9,0.7-1.3,0.4
	l-4.9-2.5c-1.3-0.6-2.8-0.3-3.7,0.8c-0.3,0.4-0.3,1.1,0.2,1.4c0.4,0.3,1.1,0.3,1.4-0.2c0.3-0.4,0.8-0.5,1.2-0.3l4.9,2.5
	c1.1,0.5,2.4,0.4,3.3-0.5l7.6-2.5c0.5-0.2,1.1,0.1,1.3,0.5C32.1,25.8,31.9,26.3,31.4,26.6z"/>
<path class="st0" d="M22,7.1c0,0.5-0.4,1-1,1c-0.6,0-1-0.4-1-1c0-0.6,0.4-1,1-1C21.5,6.1,22,6.6,22,7.1z"/>
<path class="st0" d="M26,11.1c0,0.6-0.4,1-1,1c-0.6,0-1-0.4-1-1c0-0.5,0.4-1,1-1C25.5,10.1,26,10.5,26,11.1z"/>
<path class="st0" d="M25.7,6.4c-0.4-0.4-1-0.4-1.4,0l-4,4c-0.4,0.4-0.4,1,0,1.4c0.4,0.4,1,0.4,1.4,0l4-4C26.1,7.4,26.1,6.8,25.7,6.4
	z"/>
<path class="st0" d="M12.4,11.9l10,8C22.5,20,22.8,20,23,20c0.2,0,0.4-0.1,0.6-0.2l10-8c0.3-0.3,0.5-0.7,0.3-1.1
	c-0.1-0.4-0.5-0.7-0.9-0.7h-3.1V1c0-0.6-0.4-1-1-1H17c-0.6,0-1,0.4-1,1v9.1h-3c-0.4,0-0.8,0.3-0.9,0.7
	C11.9,11.2,12.1,11.6,12.4,11.9z M17,12.1c0.5,0,1-0.4,1-1V2h10v9.1c0,0.6,0.4,1,1,1h1.2L23,17.8l-7.1-5.7H17z"/>
</svg>
