<?xml version="1.0" encoding="utf-8"?>
<!-- Generator: Adobe Illustrator 22.1.0, SVG Export Plug-In . SVG Version: 6.00 Build 0)  -->
<svg version="1.1" id="Capa_1" xmlns="http://www.w3.org/2000/svg" xmlns:xlink="http://www.w3.org/1999/xlink" x="0px" y="0px"
	 viewBox="0 0 32 32" style="enable-background:new 0 0 32 32;" xml:space="preserve">
<style type="text/css">
	.st0{fill:#DD4B39;}
</style>
<path class="st0" d="M0,0v32h32V0H0z M18.7,17.3C18.1,20.9,15.4,23,12,23c-3.9,0-7.1-3.2-7.1-7.1c0-3.9,3.2-7.1,7.1-7.1
	c1.9,0,3.5,0.7,4.7,1.8l-2,2C14,12.1,13,11.7,12,11.7c-2.3,0-4.2,2-4.2,4.3c0,2.3,1.9,4.2,4.2,4.2c1.9,0,3.4-0.9,3.8-2.8H12v-2.8
	h6.7c0.1,0.5,0.1,0.9,0.1,1.4C18.8,16.4,18.7,16.9,18.7,17.3z M27.1,16.5h-2.5v2.5h-1.8v-2.5h-2.5v-1.8h2.5v-2.5h1.8v2.5h2.5V16.5z"
	/>
</svg>
