<svg xmlns="http://www.w3.org/2000/svg" width="140" height="17" viewBox="0 0 140 17">
  <metadata><?xpacket begin="﻿" id="W5M0MpCehiHzreSzNTczkc9d"?>
<x:xmpmeta xmlns:x="adobe:ns:meta/" x:xmptk="Adobe XMP Core 5.6-c138 79.159824, 2016/09/14-01:09:01        ">
   <rdf:RDF xmlns:rdf="http://www.w3.org/1999/02/22-rdf-syntax-ns#">
      <rdf:Description rdf:about=""/>
   </rdf:RDF>
</x:xmpmeta>
                                                                                                    
                                                                                                    
                                                                                                    
                                                                                                    
                                                                                                    
                                                                                                    
                                                                                                    
                                                                                                    
                                                                                                    
                                                                                                    
                                                                                                    
                                                                                                    
                                                                                                    
                                                                                                    
                                                                                                    
                                                                                                    
                                                                                                    
                                                                                                    
                                                                                                    
                                                                                                    
                           
<?xpacket end="w"?></metadata>
<defs>
    <style>
      .cls-1 {
        fill: #5930ba;
      }

      .cls-1, .cls-2 {
        fill-rule: evenodd;
      }

      .cls-2 {
        fill: #45485c;
      }
    </style>
  </defs>
  <path id="LIMBA" class="cls-1" d="M-0.015,16.662H12.21V13H4.535V0.321h-4.55v16.34Zm14.017,0h4.55V0.321H14v16.34Zm26.5,0L40.451,0.321H36.706L31.191,9.752,25.538,0.321H21.792v16.34H26V8.235l4.113,6.816h2.022L36.269,8l0.046,8.66H40.5Zm15.58-8.52a3.959,3.959,0,0,0,1.6-1.459,3.929,3.929,0,0,0,.563-2.089,3.644,3.644,0,0,0-1.609-3.116A7.985,7.985,0,0,0,51.941.321H43.714v16.34H52.4a8.663,8.663,0,0,0,4.918-1.167,3.784,3.784,0,0,0,1.7-3.315,4.057,4.057,0,0,0-.781-2.509,4.513,4.513,0,0,0-2.16-1.529h0ZM51.344,3.659q2.3,0,2.3,1.564,0,1.588-2.3,1.587H48.218V3.659h3.125Zm0.689,9.664H48.218V10.009h3.815q2.39,0,2.39,1.657t-2.39,1.657h0Zm21.394,3.338H78.16L71.037,0.321H66.556l-7.1,16.34H64.1l1.264-3.175h6.8Zm-6.733-6.583L68.762,4.85l2.068,5.229H66.694Z"/>
  <path id="_.CITY" data-name="            .CITY" class="cls-2" d="M81.857,16.872a2.554,2.554,0,0,0,2.62-2.638,2.536,2.536,0,0,0-.735-1.891,2.8,2.8,0,0,0-3.757,0,2.514,2.514,0,0,0-.747,1.891,2.572,2.572,0,0,0,2.62,2.638h0Zm12.432,0.117a9.615,9.615,0,0,0,3.975-.794,7.667,7.667,0,0,0,2.942-2.288l-2.9-2.661a4.737,4.737,0,0,1-3.792,1.914,4.62,4.62,0,0,1-2.332-.584A4.017,4.017,0,0,1,90.6,10.931a5.126,5.126,0,0,1-.563-2.439A5.128,5.128,0,0,1,90.6,6.052a4.021,4.021,0,0,1,1.586-1.646,4.623,4.623,0,0,1,2.332-.584A4.738,4.738,0,0,1,98.31,5.737l2.9-2.661A7.675,7.675,0,0,0,98.264.788a9.615,9.615,0,0,0-3.975-.794A9.4,9.4,0,0,0,89.75,1.08,8.043,8.043,0,0,0,86.591,4.1a8.437,8.437,0,0,0-1.149,4.389,8.436,8.436,0,0,0,1.149,4.389A8.04,8.04,0,0,0,89.75,15.9a9.4,9.4,0,0,0,4.538,1.085h0Zm8.939-.327h4.549V0.321h-4.549v16.34Zm11.213,0h4.55V3.986h4.918V0.321H109.5V3.986h4.94V16.662Zm25.553-16.34h-4.412l-3.814,6.489-3.815-6.489h-4.8l6.136,10.411v5.929h4.55V10.8Z"/>
</svg>
