<?xml version="1.0" encoding="utf-8"?>
<!-- Generator: Adobe Illustrator 22.1.0, SVG Export Plug-In . SVG Version: 6.00 Build 0)  -->
<svg version="1.1" id="Capa_1" xmlns="http://www.w3.org/2000/svg" xmlns:xlink="http://www.w3.org/1999/xlink" x="0px" y="0px"
	 viewBox="0 0 32 32" style="enable-background:new 0 0 32 32;" xml:space="preserve">
<style type="text/css">
	.st0{fill:#FFC107;}
</style>
<g>
	<g>
		<path class="st0" d="M16,12.8c1.8,0,3.2-1.4,3.2-3.2c0-1.8-1.4-3.2-3.2-3.2c-1.8,0-3.2,1.4-3.2,3.3C12.8,11.4,14.2,12.8,16,12.8z"
			/>
		<path class="st0" d="M32,0H0v32h30.3H32V0z M16,3c3.6,0,6.6,3,6.5,6.7c0,3.6-3,6.5-6.6,6.5c-3.6,0-6.6-3-6.5-6.6
			C9.4,5.9,12.4,3,16,3z M23.4,18.7c-0.8,0.8-1.8,1.4-2.9,1.8c-1,0.4-2.1,0.6-3.2,0.7c0.2,0.2,0.2,0.3,0.3,0.4c1.5,1.5,3,3,4.5,4.5
			c0.5,0.5,0.6,1.2,0.3,1.8c-0.3,0.7-1,1.1-1.7,1c-0.4,0-0.8-0.2-1.1-0.5c-1.1-1.1-2.3-2.3-3.4-3.4c-0.3-0.3-0.5-0.3-0.8,0
			c-1.1,1.2-2.3,2.3-3.5,3.5c-0.5,0.5-1.1,0.6-1.8,0.3c-0.6-0.3-1.1-1-1-1.6c0-0.4,0.2-0.8,0.5-1.1c1.5-1.5,3-3,4.4-4.5
			c0.1-0.1,0.2-0.2,0.3-0.4c-2-0.2-3.8-0.7-5.4-1.9c-0.2-0.2-0.4-0.3-0.6-0.5c-0.7-0.7-0.7-1.4-0.2-2.2c0.5-0.7,1.2-0.8,2-0.5
			c0.2,0.1,0.3,0.2,0.4,0.3c2.9,2,6.9,2.1,9.8,0.1c0.3-0.2,0.6-0.4,1-0.5c0.7-0.2,1.3,0.1,1.7,0.7C23.9,17.5,23.9,18.2,23.4,18.7z"
			/>
	</g>
</g>
</svg>
