<?xml version="1.0" encoding="utf-8"?>
<!-- Generator: Adobe Illustrator 22.1.0, SVG Export Plug-In . SVG Version: 6.00 Build 0)  -->
<svg version="1.1" id="Capa_1" xmlns="http://www.w3.org/2000/svg" xmlns:xlink="http://www.w3.org/1999/xlink" x="0px" y="0px"
	 viewBox="0 0 12 12" style="enable-background:new 0 0 12 12;" xml:space="preserve">
<style type="text/css">
	.st0{fill:#CECEEE;}
</style>
<g>
	<g>
		<path class="st0" d="M11.6,9.5l-2-2c0.4-0.7,0.6-1.6,0.6-2.4C10.2,2.3,7.9,0,5.1,0S0,2.3,0,5.1s2.3,5.1,5.1,5.1
			c0.8,0,1.7-0.2,2.4-0.6l2,2c0.6,0.6,1.5,0.6,2.1,0C12.1,11,12.1,10.1,11.6,9.5z M5.1,9C2.9,9,1.2,7.2,1.2,5.1s1.7-3.9,3.9-3.9
			S9,2.9,9,5.1S7.3,9,5.1,9z"/>
	</g>
</g>
</svg>
