<?xml version="1.0" encoding="utf-8"?>
<!-- Generator: Adobe Illustrator 22.1.0, SVG Export Plug-In . SVG Version: 6.00 Build 0)  -->
<svg version="1.1" id="Capa_1" xmlns="http://www.w3.org/2000/svg" xmlns:xlink="http://www.w3.org/1999/xlink" x="0px" y="0px"
	 viewBox="0 0 21 21" style="enable-background:new 0 0 21 21;" xml:space="preserve">
<style type="text/css">
	.st0{fill:#A7B1CA;}
</style>
<g>
	<path class="st0" d="M21,11.6l-1.9-4.2h-1.2L16.7,5h-3V2.5H0v14.8h2.6c0.3,0.7,0.9,1.2,1.7,1.2S5.8,18,6,17.3H15
		c0.3,0.7,0.9,1.2,1.7,1.2c0.8,0,1.5-0.5,1.7-1.2H21V11.6z M19.4,11.1h-3.4V8.7h2.3L19.4,11.1z M15.9,6.2l0.6,1.2h-2.9V6.2H15.9z
		 M12.4,8.7v1.2H1.2V8.7H12.4z M1.2,7.4V6.2h11.2v1.2H1.2z M12.4,11.1v1.2H1.2v-1.2H12.4z M12.4,3.7V5H1.2V3.7H12.4z M1.2,13.6h11.2
		V16H6c-0.3-0.7-0.9-1.2-1.7-1.2S2.8,15.3,2.6,16H1.2L1.2,13.6z M4.3,17.3c-0.3,0-0.6-0.3-0.6-0.6S4,16,4.3,16s0.6,0.3,0.6,0.6
		S4.6,17.3,4.3,17.3z M16.7,17.3c-0.3,0-0.6-0.3-0.6-0.6s0.3-0.6,0.6-0.6c0.3,0,0.6,0.3,0.6,0.6S17,17.3,16.7,17.3z M18.4,16
		c-0.3-0.7-0.9-1.2-1.7-1.2c-0.8,0-1.5,0.5-1.7,1.2h-1.3V8.7h1.2v3.7h4.9V16H18.4z"/>
</g>
</svg>
