<?xml version="1.0" encoding="utf-8"?>
<!-- Generator: Adobe Illustrator 22.1.0, SVG Export Plug-In . SVG Version: 6.00 Build 0)  -->
<svg version="1.1" id="Capa_1" xmlns="http://www.w3.org/2000/svg" xmlns:xlink="http://www.w3.org/1999/xlink" x="0px" y="0px"
	 viewBox="0 0 10 10" style="enable-background:new 0 0 10 10;" xml:space="preserve">
<style type="text/css">
	.st0{fill:url(#SVGID_1_);}
</style>
<g>
	<g>
		<linearGradient id="SVGID_1_" gradientUnits="userSpaceOnUse" x1="5.0006" y1="10.0003" x2="5.0006" y2="-6.574049e-04">
			<stop  offset="0" style="stop-color:#FECE0C"/>
			<stop  offset="1" style="stop-color:#F1980C"/>
		</linearGradient>
		<path class="st0" d="M9.8,3.6C9.7,3.4,9.5,3.3,9.4,3.3v0L6.7,3L5.7,0.4C5.5,0.1,5.1-0.1,4.7,0.1C4.5,0.1,4.4,0.3,4.3,0.4L3.3,3
			L0.6,3.3C0.2,3.4,0,3.7,0,4.1c0,0.2,0.1,0.3,0.2,0.4l2,1.8L1.8,9.2c0,0.3,0.1,0.6,0.3,0.7C2.4,10,2.7,10,3,9.9l2-1.4l2,1.4
			c0.3,0.2,0.8,0.1,1-0.2c0.1-0.2,0.1-0.3,0.1-0.5L7.8,6.4l2-1.8C10.1,4.3,10.1,3.9,9.8,3.6z M7.1,6C7,6,7,6.2,7,6.3l0.4,3L5.2,7.8
			c-0.1-0.1-0.3-0.1-0.4,0L2.5,9.3l0.4-3C3,6.2,3,6,2.9,6L0.7,4l2.9-0.4c0.1,0,0.2-0.1,0.3-0.2L5,0.7c0,0,0,0,0,0l1.1,2.7
			c0,0.1,0.2,0.2,0.3,0.2L9.3,4L7.1,6z"/>
	</g>
</g>
</svg>
