<?xml version="1.0" encoding="utf-8"?>
<!-- Generator: Adobe Illustrator 22.1.0, SVG Export Plug-In . SVG Version: 6.00 Build 0)  -->
<svg version="1.1" id="Capa_1" xmlns="http://www.w3.org/2000/svg" xmlns:xlink="http://www.w3.org/1999/xlink" x="0px" y="0px"
	 viewBox="0 0 10 10" style="enable-background:new 0 0 10 10;" xml:space="preserve">
<style type="text/css">
	.st0{fill:url(#SVGID_1_);}
</style>
<g>
	<g>
		<linearGradient id="SVGID_1_" gradientUnits="userSpaceOnUse" x1="-5.748124e-05" y1="4.998" x2="10.0001" y2="4.998">
			<stop  offset="0" style="stop-color:#FECE0C"/>
			<stop  offset="1" style="stop-color:#F1980C"/>
		</linearGradient>
		<path class="st0" d="M10,3.8C9.9,3.6,9.7,3.4,9.4,3.3L6.7,3L5.7,0.4C5.5,0.1,5.1-0.1,4.7,0.1C4.5,0.1,4.4,0.3,4.3,0.4L3.3,3
			L0.6,3.3C0.2,3.4,0,3.7,0,4.1c0,0.2,0.1,0.3,0.2,0.4l2,1.8L1.8,9.2c0,0.3,0.1,0.6,0.3,0.7C2.4,10,2.7,10,3,9.9l2-1.4l2,1.4
			c0.3,0.2,0.8,0.1,1-0.2c0.1-0.2,0.1-0.3,0.1-0.5L7.8,6.4l2-1.8C10,4.4,10.1,4.1,10,3.8z"/>
	</g>
</g>
</svg>
