<?xml version="1.0" encoding="utf-8"?>
<!-- Generator: Adobe Illustrator 22.1.0, SVG Export Plug-In . SVG Version: 6.00 Build 0)  -->
<svg version="1.1" id="Capa_1" xmlns="http://www.w3.org/2000/svg" xmlns:xlink="http://www.w3.org/1999/xlink" x="0px" y="0px"
	 viewBox="0 0 20 14" style="enable-background:new 0 0 20 14;" xml:space="preserve">
<style type="text/css">
	.st0{fill:#FFFFFF;}
</style>
<g>
	<g>
		<path class="st0" d="M16.9,9.4l-3.2-3.9l2.9-1.7c0.3-0.2,0.4-0.5,0.2-0.8c-0.2-0.3-0.5-0.4-0.8-0.2c-0.2,0.1-5.7,3.3-6,3.5
			C9.7,6.2,4.3,3,4,2.8C3.8,2.7,3.4,2.8,3.2,3.1C3.1,3.3,3.2,3.7,3.5,3.9l2.9,1.7L3.1,9.4c-0.2,0.3-0.2,0.6,0.1,0.8
			c0.2,0.2,0.6,0.2,0.8-0.1l3.4-4.1l2.3,1.4c0.2,0.1,0.4,0.1,0.6,0l2.3-1.4l3.4,4.1c0.2,0.3,0.6,0.3,0.8,0.1
			C17.1,10.1,17.1,9.7,16.9,9.4z"/>
	</g>
</g>
<g>
	<g>
		<path class="st0" d="M18.2,0H1.8C0.8,0,0,0.8,0,1.8v10.4c0,1,0.8,1.8,1.8,1.8h16.5c1,0,1.8-0.8,1.8-1.8V1.8C20,0.8,19.2,0,18.2,0z
			 M18.8,12.2c0,0.3-0.3,0.6-0.6,0.6H1.8c-0.3,0-0.6-0.3-0.6-0.6V1.8c0-0.3,0.3-0.6,0.6-0.6h16.5c0.3,0,0.6,0.3,0.6,0.6V12.2z"/>
	</g>
</g>
</svg>
