<?xml version="1.0" encoding="utf-8"?>
<!-- Generator: Adobe Illustrator 22.1.0, SVG Export Plug-In . SVG Version: 6.00 Build 0)  -->
<svg version="1.1" id="Capa_1" xmlns="http://www.w3.org/2000/svg" xmlns:xlink="http://www.w3.org/1999/xlink" x="0px" y="0px"
	 viewBox="0 0 16 16" style="enable-background:new 0 0 16 16;" xml:space="preserve">
<style type="text/css">
	.st0{fill:#28CE76;}
</style>
<g>
	<g>
		<path class="st0" d="M8,0C3.6,0,0,3.6,0,8s3.6,8,8,8s8-3.6,8-8S12.4,0,8,0z M8,14.8c-3.7,0-6.8-3-6.8-6.8s3-6.8,6.8-6.8
			c3.7,0,6.8,3,6.8,6.8S11.7,14.8,8,14.8z"/>
	</g>
</g>
<g>
	<g>
		<path class="st0" d="M11.7,5.2C11.4,5,11,5,10.8,5.3L7,9.4L5.2,7.6c-0.2-0.2-0.6-0.2-0.9,0c-0.2,0.2-0.2,0.6,0,0.9l2.3,2.3
			c0.1,0.1,0.3,0.2,0.4,0.2c0,0,0,0,0,0c0.2,0,0.3-0.1,0.4-0.2l4.2-4.6C11.9,5.8,11.9,5.4,11.7,5.2z"/>
	</g>
</g>
</svg>
