<?xml version="1.0" encoding="utf-8"?>
<!-- Generator: Adobe Illustrator 22.1.0, SVG Export Plug-In . SVG Version: 6.00 Build 0)  -->
<svg version="1.1" id="Layer_1" xmlns="http://www.w3.org/2000/svg" xmlns:xlink="http://www.w3.org/1999/xlink" x="0px" y="0px"
	 viewBox="0 0 34 34" style="enable-background:new 0 0 34 34;" xml:space="preserve">
<style type="text/css">
	.st0{fill:#6B4DB3;}
</style>
<g id="XMLID_806_">
	<g id="XMLID_386_">
		<path id="XMLID_389_" class="st0" d="M33.9,18.6c-0.3-3.1-1.7-6-3.9-8.2c-1.9-1.9-4.2-3.1-6.6-3.6V5.1c1-0.2,1.7-1.1,1.7-2.2
			c0-1.2-1-2.3-2.3-2.3h-4.8c-1.2,0-2.3,1-2.3,2.3c0,1.1,0.7,1.9,1.7,2.2v1.7c-2.4,0.5-4.7,1.7-6.5,3.6c-0.4,0.4-0.8,0.8-1.1,1.3
			c0,0,0,0-0.1,0H5.2c-0.4,0-0.7,0.3-0.7,0.7S4.8,13,5.2,13h3.9c-0.5,0.8-0.9,1.7-1.2,2.6H0.7c-0.4,0-0.7,0.3-0.7,0.7
			c0,0.4,0.3,0.7,0.7,0.7h6.9c-0.2,0.8-0.3,1.7-0.3,2.6H4.3c-0.4,0-0.7,0.3-0.7,0.7s0.3,0.7,0.7,0.7h3c0.1,0.9,0.2,1.7,0.4,2.6H3.3
			c-0.4,0-0.7,0.3-0.7,0.7s0.3,0.7,0.7,0.7H8c0.7,1.7,1.7,3.3,3.1,4.7c2.2,2.2,5.1,3.6,8.2,3.9c0.4,0,0.9,0.1,1.3,0.1
			c2.6,0,5.1-0.7,7.3-2.2c0.3-0.2,0.4-0.6,0.2-0.9c-0.2-0.3-0.6-0.4-0.9-0.2c-4.8,3.1-11.1,2.4-15.1-1.6c-4.7-4.7-4.7-12.4,0-17.1
			c4.7-4.7,12.4-4.7,17.1,0c4,4,4.7,10.4,1.6,15.1c-0.2,0.3-0.1,0.7,0.2,0.9c0.3,0.2,0.7,0.1,0.9-0.2C33.5,24.7,34.2,21.6,33.9,18.6
			z M17.3,2.9c0-0.5,0.4-0.9,0.9-0.9H23c0.5,0,0.9,0.4,0.9,0.9S23.5,3.9,23,3.9h-0.1h-4.5h-0.1C17.7,3.9,17.3,3.5,17.3,2.9z M19,6.6
			V5.2h3.2v1.4C21.1,6.5,20,6.5,19,6.6z"/>
		<path id="XMLID_391_" class="st0" d="M29.6,28.3c-0.2,0-0.3,0.1-0.5,0.2c-0.1,0.1-0.2,0.3-0.2,0.5c0,0.2,0.1,0.3,0.2,0.5
			c0.1,0.1,0.3,0.2,0.5,0.2c0.2,0,0.3-0.1,0.5-0.2c0.1-0.1,0.2-0.3,0.2-0.5c0-0.2-0.1-0.3-0.2-0.5C29.9,28.3,29.8,28.3,29.6,28.3z"
			/>
		<path id="XMLID_394_" class="st0" d="M20.6,9.6c-5.7,0-10.3,4.6-10.3,10.3s4.6,10.3,10.3,10.3s10.3-4.6,10.3-10.3
			S26.3,9.6,20.6,9.6z M20.6,28.9c-4.9,0-9-4-9-9s4-9,9-9s9,4,9,9S25.5,28.9,20.6,28.9z"/>
		<path id="XMLID_397_" class="st0" d="M24.8,14.8l-3.3,3.3c-0.3-0.1-0.6-0.2-0.9-0.2c-0.3,0-0.6,0.1-0.9,0.2l-1.5-1.5
			c-0.3-0.3-0.7-0.3-0.9,0c-0.3,0.3-0.3,0.7,0,0.9l1.5,1.5c-0.1,0.3-0.2,0.6-0.2,0.9c0,1.1,0.9,2.1,2.1,2.1c1.1,0,2.1-0.9,2.1-2.1
			c0-0.3-0.1-0.6-0.2-0.9l3.2-3.2l0,0l0.1-0.1c0.3-0.3,0.3-0.7,0-0.9C25.5,14.5,25,14.5,24.8,14.8z M20.6,20.6
			c-0.4,0-0.7-0.3-0.7-0.7s0.3-0.7,0.7-0.7s0.7,0.3,0.7,0.7S21,20.6,20.6,20.6z"/>
		<path id="XMLID_398_" class="st0" d="M27.7,19.2h-0.6c-0.4,0-0.7,0.3-0.7,0.7s0.3,0.7,0.7,0.7h0.6c0.4,0,0.7-0.3,0.7-0.7
			S28.1,19.2,27.7,19.2z"/>
		<path id="XMLID_399_" class="st0" d="M14.1,19.2h-0.6c-0.4,0-0.7,0.3-0.7,0.7s0.3,0.7,0.7,0.7h0.6c0.4,0,0.7-0.3,0.7-0.7
			S14.5,19.2,14.1,19.2z"/>
		<path id="XMLID_400_" class="st0" d="M20.6,14.1c0.4,0,0.7-0.3,0.7-0.7v-0.6c0-0.4-0.3-0.7-0.7-0.7s-0.7,0.3-0.7,0.7v0.6
			C19.9,13.8,20.2,14.1,20.6,14.1z"/>
		<path id="XMLID_424_" class="st0" d="M20.6,25.7c-0.4,0-0.7,0.3-0.7,0.7V27c0,0.4,0.3,0.7,0.7,0.7s0.7-0.3,0.7-0.7v-0.6
			C21.2,26,20.9,25.7,20.6,25.7z"/>
		<path id="XMLID_425_" class="st0" d="M0.7,23.3c-0.2,0-0.3,0.1-0.5,0.2S0,23.8,0,24c0,0.2,0.1,0.3,0.2,0.5s0.3,0.2,0.5,0.2
			s0.3-0.1,0.5-0.2c0.1-0.1,0.2-0.3,0.2-0.5s-0.1-0.3-0.2-0.5C1,23.4,0.8,23.3,0.7,23.3z"/>
	</g>
</g>
</svg>
