<?xml version="1.0" encoding="utf-8"?>
<!-- Generator: Adobe Illustrator 22.1.0, SVG Export Plug-In . SVG Version: 6.00 Build 0)  -->
<svg version="1.1" id="Capa_1" xmlns="http://www.w3.org/2000/svg" xmlns:xlink="http://www.w3.org/1999/xlink" x="0px" y="0px"
	 viewBox="0 0 32 32" style="enable-background:new 0 0 32 32;" xml:space="preserve">
<style type="text/css">
	.st0{fill:#50ABF1;}
	.st1{fill:#FFFFFF;}
</style>
<g>
	<rect y="0" class="st0" width="32" height="32"/>
	<path class="st1" d="M4.2,23.7c2.1,1.4,4.7,2.1,7.4,2.1c7.6,0,13.8-6.2,13.8-13.8c0-0.2,0-0.4,0-0.6c0.3-0.2,2-1.6,2.4-2.5
		c0,0-1.4,0.6-2.7,0.7c0,0,0,0,0,0c0,0,0,0,0,0c0.1-0.1,1.9-1.3,2.1-2.7c0,0-1,0.5-2.3,1c-0.2,0.1-0.5,0.1-0.7,0.2
		c-0.9-0.9-2.1-1.5-3.5-1.5c-2.7,0-4.8,2.2-4.8,4.8c0,0.4,0,0.7,0.1,1.1c-0.4,0-6.1-0.3-9.9-5c0,0-2.3,3.2,1.4,6.4
		c0,0-1.1,0-2.1-0.6c0,0-0.4,3.8,3.8,4.8c0,0-0.8,0.3-2.1,0.1c0,0,0.7,3.1,4.4,3.4C11.3,21.7,8.4,24.3,4.2,23.7L4.2,23.7z"/>
</g>
</svg>
