<?xml version="1.0" encoding="utf-8"?>
<!-- Generator: Adobe Illustrator 22.1.0, SVG Export Plug-In . SVG Version: 6.00 Build 0)  -->
<svg version="1.1" id="Capa_1" xmlns="http://www.w3.org/2000/svg" xmlns:xlink="http://www.w3.org/1999/xlink" x="0px" y="0px"
	 viewBox="0 0 16 16" style="enable-background:new 0 0 16 16;" xml:space="preserve">
<style type="text/css">
	.st0{fill:#DE4229;}
</style>
<g>
	<g>
		<path class="st0" d="M13.7,2.3c-3.1-3.1-8.2-3.1-11.3,0C0.8,3.9,0,5.9,0,8s0.8,4.1,2.3,5.7C3.9,15.2,6,16,8,16s4.1-0.8,5.7-2.3
			C16.8,10.5,16.8,5.5,13.7,2.3z M12.8,12.8c-2.6,2.6-6.9,2.6-9.6,0c-1.3-1.3-2-3-2-4.8s0.7-3.5,2-4.8c2.6-2.6,6.9-2.6,9.6,0
			C15.4,5.9,15.4,10.1,12.8,12.8z"/>
	</g>
</g>
<g>
	<g>
		<path class="st0" d="M10.7,9.7L8.9,8l1.8-1.8c0.2-0.2,0.2-0.6,0-0.9c-0.2-0.2-0.6-0.2-0.9,0L8,7.1L6.3,5.3C6,5.1,5.6,5.1,5.4,5.3
			C5.2,5.6,5.2,6,5.4,6.2L7.2,8L5.4,9.7c-0.2,0.2-0.2,0.6,0,0.9c0.1,0.1,0.3,0.2,0.4,0.2c0.2,0,0.3-0.1,0.4-0.2L8,8.8l1.8,1.8
			c0.1,0.1,0.3,0.2,0.4,0.2s0.3-0.1,0.4-0.2C10.9,10.3,10.9,10,10.7,9.7z"/>
	</g>
</g>
</svg>
