<?xml version="1.0" encoding="utf-8"?>
<!-- Generator: Adobe Illustrator 22.1.0, SVG Export Plug-In . SVG Version: 6.00 Build 0)  -->
<svg version="1.1" id="Layer_1" xmlns="http://www.w3.org/2000/svg" xmlns:xlink="http://www.w3.org/1999/xlink" x="0px" y="0px"
	 viewBox="0 0 18 18" style="enable-background:new 0 0 18 18;" xml:space="preserve">
<style type="text/css">
	.st0{fill:#BFAFE5;}
</style>
<g>
	<path class="st0" d="M9,18c-2.1,0-4.2-0.8-5.8-2.1c-0.4-0.3-0.7-0.7-1.1-1.1C0.8,13.2,0,11.1,0,9c0-2.4,0.9-4.7,2.6-6.4S6.6,0,9,0
		s4.7,0.9,6.4,2.6S18,6.6,18,9c0,2.1-0.8,4.2-2.1,5.8c-0.3,0.4-0.7,0.7-1.1,1.1C13.2,17.2,11.1,18,9,18L9,18z M9,1.1
		C4.7,1.1,1.1,4.7,1.1,9c0,1.9,0.7,3.7,1.9,5.1c0.3,0.3,0.6,0.6,0.9,0.9c1.4,1.2,3.2,1.9,5.1,1.9s3.7-0.7,5.1-1.9
		c0.3-0.3,0.6-0.6,0.9-0.9c1.2-1.4,1.9-3.2,1.9-5.1C16.9,4.7,13.3,1.1,9,1.1L9,1.1z"/>
	<path class="st0" d="M9,9C7.1,9,5.6,7.5,5.6,5.6S7.1,2.2,9,2.2s3.4,1.5,3.4,3.4S10.9,9,9,9z M9,3.4c-1.2,0-2.3,1-2.3,2.2
		s1,2.3,2.3,2.3s2.3-1,2.3-2.3S10.2,3.4,9,3.4z"/>
	<path class="st0" d="M14.5,16c0,0-0.1,0-0.1,0c-0.3-0.1-0.5-0.4-0.4-0.7c0.1-0.4,0.2-0.8,0.2-1.2c0-2.8-2.2-5-5-5.1L9,9L8.9,9
		c-2.8,0-5,2.3-5,5.1c0,0.4,0.1,0.8,0.2,1.2C4.2,15.6,4,15.9,3.7,16S3.1,15.9,3,15.6c-0.1-0.5-0.2-1-0.2-1.5c0-1.6,0.6-3.2,1.8-4.3
		c1.1-1.2,2.7-1.8,4.3-1.8c0,0,0,0,0,0l0.1,0l0.1,0c0,0,0,0,0,0c1.6,0,3.2,0.7,4.3,1.8c1.2,1.2,1.8,2.7,1.8,4.3c0,0.5-0.1,1-0.2,1.5
		C14.9,15.8,14.7,16,14.5,16z"/>
</g>
</svg>
