<?xml version="1.0" encoding="utf-8"?>
<!-- Generator: Adobe Illustrator 22.1.0, SVG Export Plug-In . SVG Version: 6.00 Build 0)  -->
<svg version="1.1" id="Capa_1" xmlns="http://www.w3.org/2000/svg" xmlns:xlink="http://www.w3.org/1999/xlink" x="0px" y="0px"
	 viewBox="0 0 32 32" style="enable-background:new 0 0 32 32;" xml:space="preserve">
<style type="text/css">
	.st0{fill:#44678D;}
	.st1{fill:#FFFFFF;}
</style>
<g>
	<rect y="0" class="st0" width="32" height="32"/>
	<path class="st1" d="M8.3,9.7c0.8,1.9,1.7,3.7,3,5.3c0.2,0.2,0.4,0.4,0.6,0.6c0.3,0.2,0.6,0.1,0.8-0.2c0.1-0.4,0.3-1.2,0.3-1.6
		c0-1.1,0-1.8-0.1-2.9c0-0.7-0.3-1.3-1.3-1.5c-0.3-0.1-0.3-0.3-0.1-0.6c0.4-0.5,1-0.6,1.6-0.7c1-0.1,2.1,0,3.1,0
		c0.4,0,0.8,0,1.3,0.1c0.5,0.1,0.8,0.5,0.9,1c0,0.3,0.1,0.6,0.1,0.8c0,1.2-0.1,2.4-0.1,3.6c0,0.5,0,0.9,0.1,1.4
		c0.1,0.6,0.6,0.8,1,0.3c0.6-0.6,1-1.2,1.5-1.9c0.8-1.2,1.5-2.5,2-3.9c0.3-0.7,0.5-0.9,1.2-0.9c1.4,0,2.8,0,4.3,0
		c0.3,0,0.5,0,0.8,0.1c0.4,0.1,0.5,0.4,0.4,0.8c-0.2,0.9-0.7,1.7-1.3,2.5c-0.9,1.2-1.8,2.4-2.7,3.6c-0.1,0.2-0.2,0.3-0.3,0.5
		c-0.3,0.6-0.3,0.9,0.2,1.4c0.8,0.8,1.6,1.5,2.3,2.4c0.5,0.6,1,1.2,1.5,1.9c0.5,0.9,0.2,1.7-0.8,1.8c-0.6,0.1-3.8,0-3.9,0
		c-0.8,0-1.6-0.3-2.2-0.9c-0.7-0.6-1.3-1.3-1.9-2c-0.2-0.2-0.4-0.4-0.6-0.6c-0.5-0.4-1-0.3-1.3,0.3c-0.2,0.5-0.4,1.9-0.4,2
		c0,0.6-0.4,1-1.1,1c-2,0.1-3.9-0.1-5.7-1.1c-1.5-0.8-2.7-2-3.8-3.3c-1.7-2.1-3-4.5-4.2-6.9c-0.1-0.1-1.3-2.7-1.3-2.8
		c-0.1-0.4,0-0.8,0.3-0.9c0.2-0.1,4.2,0,4.3,0C7.6,8.8,8,9.1,8.3,9.7z"/>
</g>
</svg>
