<?xml version="1.0" encoding="utf-8"?>
<!-- Generator: Adobe Illustrator 22.1.0, SVG Export Plug-In . SVG Version: 6.00 Build 0)  -->
<svg version="1.1" id="Layer_1" xmlns="http://www.w3.org/2000/svg" xmlns:xlink="http://www.w3.org/1999/xlink" x="0px" y="0px"
	 viewBox="0 0 32 32" style="enable-background:new 0 0 32 32;" xml:space="preserve">
<style type="text/css">
	.st0{fill:#ED1C24;}
</style>
<g>
	<g>
		<path class="st0" d="M16.9,6.8c-0.3,0.1-2.9,0.6-2.9,5c0,2,0.5,3.2,1.1,3.9c0.6,0.7,1.4,1.1,2.3,1.1h1.6V6.8L16.9,6.8
			C16.9,6.8,16.9,6.8,16.9,6.8z"/>
		<path class="st0" d="M0,0v32h32V0H0z M21.4,27.1H19v-8.3h-1.7l-3.7,8.3h-3l4.7-8.5c0,0-4-1.8-4-6.4c0-4.5,3.2-7.3,5.8-7.3h4.2
			V27.1z"/>
	</g>
</g>
</svg>
